<mxfile host="app.diagrams.net" agent="Mozilla/5.0 (Windows NT 10.0; Win64; x64) AppleWebKit/537.36 (KHTML, like Gecko) Chrome/137.0.0.0 Safari/537.36" version="27.0.9">
  <diagram name="Page-1" id="ZKbd5eJVbi02ORI__QHd">
    <mxGraphModel dx="492" dy="286" grid="1" gridSize="10" guides="1" tooltips="1" connect="1" arrows="1" fold="1" page="1" pageScale="1" pageWidth="583" pageHeight="827" math="0" shadow="0">
      <root>
        <mxCell id="0" />
        <mxCell id="1" parent="0" />
        <mxCell id="ZkamwcqwGnBF8Fzs7s0s-8" style="edgeStyle=orthogonalEdgeStyle;rounded=0;orthogonalLoop=1;jettySize=auto;html=1;entryX=1;entryY=0.5;entryDx=0;entryDy=0;" edge="1" parent="1" source="ZkamwcqwGnBF8Fzs7s0s-1" target="ZkamwcqwGnBF8Fzs7s0s-4">
          <mxGeometry relative="1" as="geometry" />
        </mxCell>
        <mxCell id="ZkamwcqwGnBF8Fzs7s0s-20" value="recieves" style="edgeLabel;html=1;align=center;verticalAlign=middle;resizable=0;points=[];" vertex="1" connectable="0" parent="ZkamwcqwGnBF8Fzs7s0s-8">
          <mxGeometry x="0.3144" relative="1" as="geometry">
            <mxPoint x="-11" as="offset" />
          </mxGeometry>
        </mxCell>
        <mxCell id="ZkamwcqwGnBF8Fzs7s0s-9" style="edgeStyle=orthogonalEdgeStyle;rounded=0;orthogonalLoop=1;jettySize=auto;html=1;entryX=0;entryY=0.5;entryDx=0;entryDy=0;" edge="1" parent="1" source="ZkamwcqwGnBF8Fzs7s0s-1" target="ZkamwcqwGnBF8Fzs7s0s-2">
          <mxGeometry relative="1" as="geometry" />
        </mxCell>
        <mxCell id="ZkamwcqwGnBF8Fzs7s0s-13" value="writes" style="edgeLabel;html=1;align=center;verticalAlign=middle;resizable=0;points=[];" vertex="1" connectable="0" parent="ZkamwcqwGnBF8Fzs7s0s-9">
          <mxGeometry x="0.019" y="-3" relative="1" as="geometry">
            <mxPoint y="-3" as="offset" />
          </mxGeometry>
        </mxCell>
        <mxCell id="ZkamwcqwGnBF8Fzs7s0s-14" style="edgeStyle=orthogonalEdgeStyle;rounded=0;orthogonalLoop=1;jettySize=auto;html=1;entryX=0.5;entryY=1;entryDx=0;entryDy=0;" edge="1" parent="1" source="ZkamwcqwGnBF8Fzs7s0s-1" target="ZkamwcqwGnBF8Fzs7s0s-7">
          <mxGeometry relative="1" as="geometry" />
        </mxCell>
        <mxCell id="ZkamwcqwGnBF8Fzs7s0s-15" value="takes" style="edgeLabel;html=1;align=center;verticalAlign=middle;resizable=0;points=[];" vertex="1" connectable="0" parent="ZkamwcqwGnBF8Fzs7s0s-14">
          <mxGeometry x="-0.1339" y="-2" relative="1" as="geometry">
            <mxPoint as="offset" />
          </mxGeometry>
        </mxCell>
        <mxCell id="ZkamwcqwGnBF8Fzs7s0s-18" style="edgeStyle=orthogonalEdgeStyle;rounded=0;orthogonalLoop=1;jettySize=auto;html=1;entryX=1;entryY=0.5;entryDx=0;entryDy=0;" edge="1" parent="1" source="ZkamwcqwGnBF8Fzs7s0s-1" target="ZkamwcqwGnBF8Fzs7s0s-6">
          <mxGeometry relative="1" as="geometry" />
        </mxCell>
        <mxCell id="ZkamwcqwGnBF8Fzs7s0s-19" value="leaves" style="edgeLabel;html=1;align=center;verticalAlign=middle;resizable=0;points=[];" vertex="1" connectable="0" parent="ZkamwcqwGnBF8Fzs7s0s-18">
          <mxGeometry x="0.036" relative="1" as="geometry">
            <mxPoint as="offset" />
          </mxGeometry>
        </mxCell>
        <mxCell id="ZkamwcqwGnBF8Fzs7s0s-1" value="USER" style="whiteSpace=wrap;html=1;aspect=fixed;" vertex="1" parent="1">
          <mxGeometry x="492" y="373" width="80" height="80" as="geometry" />
        </mxCell>
        <mxCell id="ZkamwcqwGnBF8Fzs7s0s-2" value="MESSAGES" style="whiteSpace=wrap;html=1;aspect=fixed;" vertex="1" parent="1">
          <mxGeometry x="692" y="373" width="80" height="80" as="geometry" />
        </mxCell>
        <mxCell id="ZkamwcqwGnBF8Fzs7s0s-3" value="PAYMENT" style="whiteSpace=wrap;html=1;aspect=fixed;" vertex="1" parent="1">
          <mxGeometry x="292" y="573" width="80" height="80" as="geometry" />
        </mxCell>
        <mxCell id="ZkamwcqwGnBF8Fzs7s0s-21" style="edgeStyle=orthogonalEdgeStyle;rounded=0;orthogonalLoop=1;jettySize=auto;html=1;entryX=0.5;entryY=0;entryDx=0;entryDy=0;" edge="1" parent="1" source="ZkamwcqwGnBF8Fzs7s0s-4" target="ZkamwcqwGnBF8Fzs7s0s-3">
          <mxGeometry relative="1" as="geometry" />
        </mxCell>
        <mxCell id="ZkamwcqwGnBF8Fzs7s0s-22" value="leads to" style="edgeLabel;html=1;align=center;verticalAlign=middle;resizable=0;points=[];" vertex="1" connectable="0" parent="ZkamwcqwGnBF8Fzs7s0s-21">
          <mxGeometry x="-0.1075" y="2" relative="1" as="geometry">
            <mxPoint x="-2" as="offset" />
          </mxGeometry>
        </mxCell>
        <mxCell id="ZkamwcqwGnBF8Fzs7s0s-4" value="INVOICE" style="whiteSpace=wrap;html=1;aspect=fixed;" vertex="1" parent="1">
          <mxGeometry x="292" y="373" width="80" height="80" as="geometry" />
        </mxCell>
        <mxCell id="ZkamwcqwGnBF8Fzs7s0s-5" value="SESSION" style="whiteSpace=wrap;html=1;aspect=fixed;" vertex="1" parent="1">
          <mxGeometry x="692" y="173" width="80" height="80" as="geometry" />
        </mxCell>
        <mxCell id="ZkamwcqwGnBF8Fzs7s0s-6" value="REVIEW" style="whiteSpace=wrap;html=1;aspect=fixed;" vertex="1" parent="1">
          <mxGeometry x="292" y="173" width="80" height="80" as="geometry" />
        </mxCell>
        <mxCell id="ZkamwcqwGnBF8Fzs7s0s-16" style="edgeStyle=orthogonalEdgeStyle;rounded=0;orthogonalLoop=1;jettySize=auto;html=1;entryX=0;entryY=0.5;entryDx=0;entryDy=0;" edge="1" parent="1" source="ZkamwcqwGnBF8Fzs7s0s-7" target="ZkamwcqwGnBF8Fzs7s0s-5">
          <mxGeometry relative="1" as="geometry" />
        </mxCell>
        <mxCell id="ZkamwcqwGnBF8Fzs7s0s-17" value="concerns" style="edgeLabel;html=1;align=center;verticalAlign=middle;resizable=0;points=[];" vertex="1" connectable="0" parent="ZkamwcqwGnBF8Fzs7s0s-16">
          <mxGeometry x="-0.004" y="-1" relative="1" as="geometry">
            <mxPoint y="-1" as="offset" />
          </mxGeometry>
        </mxCell>
        <mxCell id="ZkamwcqwGnBF8Fzs7s0s-25" style="edgeStyle=orthogonalEdgeStyle;rounded=0;orthogonalLoop=1;jettySize=auto;html=1;entryX=0;entryY=0.5;entryDx=0;entryDy=0;" edge="1" parent="1" source="ZkamwcqwGnBF8Fzs7s0s-7" target="ZkamwcqwGnBF8Fzs7s0s-23">
          <mxGeometry relative="1" as="geometry">
            <mxPoint x="532" y="80" as="targetPoint" />
            <Array as="points">
              <mxPoint x="532" y="127" />
              <mxPoint x="530" y="127" />
              <mxPoint x="530" y="80" />
            </Array>
          </mxGeometry>
        </mxCell>
        <mxCell id="ZkamwcqwGnBF8Fzs7s0s-26" value="depends on" style="edgeLabel;html=1;align=center;verticalAlign=middle;resizable=0;points=[];" vertex="1" connectable="0" parent="ZkamwcqwGnBF8Fzs7s0s-25">
          <mxGeometry x="-0.3953" relative="1" as="geometry">
            <mxPoint as="offset" />
          </mxGeometry>
        </mxCell>
        <mxCell id="ZkamwcqwGnBF8Fzs7s0s-7" value="APPOINTMENT" style="whiteSpace=wrap;html=1;aspect=fixed;" vertex="1" parent="1">
          <mxGeometry x="492" y="173" width="80" height="80" as="geometry" />
        </mxCell>
        <mxCell id="ZkamwcqwGnBF8Fzs7s0s-23" value="AVAILABILITY" style="whiteSpace=wrap;html=1;aspect=fixed;" vertex="1" parent="1">
          <mxGeometry x="590" y="40" width="80" height="80" as="geometry" />
        </mxCell>
      </root>
    </mxGraphModel>
  </diagram>
</mxfile>
